<svg width="21" height="22" viewBox="0 0 21 22" fill="none" xmlns="http://www.w3.org/2000/svg">
    <path d="M19.9241 19.9799H18.9849V7.94977C18.9849 7.28796 18.7219 6.66884 18.2617 6.26322L17.1065 5.23847L17.0877 2.62324C17.0877 2.03615 16.665 1.56647 16.1485 1.56647H12.9458L11.6872 0.456331C11.011 -0.15211 10.053 -0.15211 9.37679 0.456331L2.80235 6.26322C2.34213 6.66884 2.07916 7.28796 2.07916 7.9391L2.0322 19.9799H1.13995C0.754877 19.9799 0.435547 20.3428 0.435547 20.7805C0.435547 21.2181 0.754877 21.5811 1.13995 21.5811H19.9241C20.3091 21.5811 20.6285 21.2181 20.6285 20.7805C20.6285 20.3428 20.3091 19.9799 19.9241 19.9799ZM5.36638 10.9065V9.30537C5.36638 8.71828 5.78902 8.23793 6.30558 8.23793H8.184C8.70056 8.23793 9.1232 8.71828 9.1232 9.30537V10.9065C9.1232 11.4936 8.70056 11.974 8.184 11.974H6.30558C5.78902 11.974 5.36638 11.4936 5.36638 10.9065ZM12.88 19.9799H8.184V17.0443C8.184 16.1583 8.81326 15.4432 9.5928 15.4432H11.4712C12.2508 15.4432 12.88 16.1583 12.88 17.0443V19.9799ZM15.6976 10.9065C15.6976 11.4936 15.275 11.974 14.7584 11.974H12.88C12.3635 11.974 11.9408 11.4936 11.9408 10.9065V9.30537C11.9408 8.71828 12.3635 8.23793 12.88 8.23793H14.7584C15.275 8.23793 15.6976 8.71828 15.6976 9.30537V10.9065Z" fill="white"/>
</svg>
