<svg width="21" height="28" viewBox="0 0 21 28" fill="none" xmlns="http://www.w3.org/2000/svg">
    <path d="M14.8295 10.0921C14.344 10.0921 13.9415 9.63457 13.9415 9.08287V4.37323C13.9415 2.91997 13.1483 2.01842 11.8696 2.01842H8.31771C7.03904 2.01842 6.24578 2.91997 6.24578 4.37323V9.08287C6.24578 9.63457 5.84324 10.0921 5.35782 10.0921C4.87239 10.0921 4.46985 9.63457 4.46985 9.08287V4.37323C4.46985 1.80312 6.05635 0 8.31771 0H11.8696C14.1309 0 15.7174 1.80312 15.7174 4.37323V9.08287C15.7174 9.63457 15.3149 10.0921 14.8295 10.0921Z" fill="white"/>
    <path d="M5.35884 22.243C4.87342 22.243 4.47087 21.7855 4.47087 21.2338C4.47087 20.6686 4.87342 20.2245 5.35884 20.2245H19.2821C19.6373 20.2245 19.9096 19.8747 19.8741 19.471L19.069 11.8145C18.7849 9.204 18.3823 7.06448 14.3569 7.06448H5.83242C1.80697 7.06448 1.40442 9.204 1.13211 11.8145L0.0665519 21.9066C-0.276796 25.2168 0.623012 27.9214 4.7787 27.9214H15.4106C19.1519 27.9214 20.253 25.7281 20.1938 22.8754C20.182 22.5121 19.9215 22.243 19.6018 22.243H5.35884Z" fill="white"/>
</svg>
